<svg width="25" height="25" viewBox="0 0 25 25" fill="none" xmlns="http://www.w3.org/2000/svg">
<path d="M17.0587 0.950195C15.7792 1.03869 14.2837 1.85769 13.4122 2.92418C12.6172 3.89168 11.9632 5.32867 12.2182 6.72516C13.6162 6.76866 15.0607 5.93017 15.8977 4.84567C16.6807 3.83618 17.2732 2.40819 17.0587 0.950195Z" fill="black"/>
<path d="M22.1151 9.00236C20.8866 7.46187 19.1602 6.56787 17.5297 6.56787C15.3772 6.56787 14.4667 7.59837 12.9712 7.59837C11.4292 7.59837 10.2577 6.57087 8.39622 6.57087C6.56773 6.57087 4.62074 7.68836 3.38625 9.59935C1.65076 12.2903 1.94775 17.3498 4.76024 21.6593C5.76673 23.2013 7.11072 24.9353 8.86871 24.9503C10.4332 24.9653 10.8742 23.9468 12.9937 23.9363C15.1132 23.9243 15.5152 24.9638 17.0767 24.9473C18.8362 24.9338 20.2536 23.0123 21.2601 21.4703C21.9816 20.3648 22.2501 19.8083 22.8096 18.5603C18.7402 17.0108 18.0877 11.2238 22.1151 9.00236Z" fill="black"/>
</svg>
