<svg width="16" height="17" viewBox="0 0 16 17" fill="none" xmlns="http://www.w3.org/2000/svg">
<path d="M2.18151 12.5864C1.57544 12.5864 1.06047 12.7986 0.636154 13.2227C0.212118 13.6468 0 14.1619 0 14.7679C0 15.3741 0.211919 15.8891 0.636154 16.3131C1.06047 16.7372 1.5756 16.9494 2.18151 16.9494C2.7875 16.9494 3.30251 16.7372 3.72674 16.3131C4.15082 15.8891 4.36294 15.3741 4.36294 14.7679C4.36294 14.1618 4.15082 13.6468 3.72674 13.2227C3.30263 12.7986 2.78762 12.5864 2.18151 12.5864Z" fill="black"/>
<path d="M7.20364 9.74541C6.34761 8.88189 5.3667 8.19452 4.26074 7.68329C3.15478 7.1719 1.99574 6.86701 0.78384 6.76855H0.72713C0.530175 6.76855 0.367286 6.83299 0.238622 6.96173C0.0794745 7.09791 0 7.27605 0 7.49568V9.02958C0 9.21889 0.0624414 9.38178 0.187364 9.51824C0.312326 9.65471 0.469484 9.73044 0.658878 9.74541C2.39347 9.91211 3.87626 10.6111 5.1071 11.8418C6.33802 13.0726 7.03685 14.5555 7.20348 16.29C7.21869 16.4796 7.29438 16.6367 7.4308 16.7614C7.56719 16.8867 7.72996 16.9493 7.91931 16.9493H9.45328C9.67284 16.9493 9.85082 16.8699 9.98716 16.7107C10.1313 16.559 10.1955 16.3771 10.1807 16.1651C10.0821 14.9534 9.77715 13.7943 9.26588 12.6884C8.75465 11.5824 8.06716 10.6015 7.20364 9.74541Z" fill="black"/>
<path d="M14.6344 10.4897C13.824 8.6756 12.7105 7.0641 11.2941 5.65513C9.88504 4.2386 8.27362 3.12516 6.45932 2.31461C4.64522 1.50423 2.74583 1.04963 0.761156 0.951172H0.72713C0.530175 0.951172 0.363545 1.01934 0.227161 1.15573C0.0757336 1.29195 0 1.4663 0 1.67842V3.30313C0 3.49256 0.0663415 3.6572 0.198825 3.79737C0.331349 3.93757 0.492248 4.01132 0.681642 4.01904C2.31029 4.11766 3.8574 4.50408 5.32316 5.1782C6.78888 5.85236 8.06143 6.72917 9.14088 7.80838C10.2201 8.88779 11.0969 10.1604 11.771 11.6261C12.4452 13.0921 12.8279 14.639 12.9187 16.2675C12.9265 16.4571 13.0001 16.6181 13.1402 16.7506C13.2804 16.8831 13.4491 16.9496 13.646 16.9496H15.2706C15.4828 16.9496 15.6567 16.8739 15.7933 16.7221C15.9449 16.5707 16.0129 16.3929 15.998 16.1883C15.8997 14.2034 15.4449 12.3041 14.6344 10.4897Z" fill="black"/>
</svg>
