<svg width="17" height="17" viewBox="0 0 17 17" fill="none" xmlns="http://www.w3.org/2000/svg">
<path d="M0.367966 6.93262C0.367966 3.47949 3.16796 0.682617 6.62187 0.682617H10.0328C13.5406 0.682617 16.3836 3.52637 16.3836 7.03418C16.3836 9.34668 15.1281 11.4717 13.1055 12.5889L6.81328 16.0732V13.1904H6.76093C3.25312 13.2686 0.367966 10.4482 0.367966 6.93262ZM6.62187 2.24512C4.03047 2.24512 1.93047 4.34668 1.93047 6.93262C1.93047 9.56543 4.09453 11.6826 6.72578 11.6279L7 11.6201H8.37578V13.417L12.35 11.2217C13.8742 10.3779 14.8211 8.77637 14.8211 7.03418C14.8211 4.38574 12.6773 2.24512 10.0328 2.24512H6.62187Z" fill="#536471"/>
</svg>
