<svg width="17" height="15" viewBox="0 0 17 15" fill="none" xmlns="http://www.w3.org/2000/svg">
<path d="M12.2545 2.41705C11.2998 2.37017 10.1616 2.81549 9.21546 4.10455L8.58655 4.95611L7.95686 4.10455C7.00999 2.81549 5.87093 2.37017 4.91624 2.41705C3.94514 2.47174 3.08108 3.02642 2.6428 3.90924C2.21155 4.78424 2.14827 6.08111 3.01702 7.67486C3.85608 9.21392 5.56155 11.0108 8.58655 12.8389C11.61 11.0108 13.3147 9.21392 14.1537 7.67486C15.0217 6.08111 14.9584 4.78424 14.5264 3.90924C14.0881 3.02642 13.2248 2.47174 12.2545 2.41705ZM15.5256 8.42486C14.4701 10.3624 12.3998 12.4249 8.97952 14.417L8.58655 14.6514L8.1928 14.417C4.77171 12.4249 2.70139 10.3624 1.64436 8.42486C0.581864 6.47173 0.542801 4.62799 1.2428 3.21392C1.93577 1.81549 3.31077 0.940485 4.83733 0.86236C6.12718 0.792048 7.46858 1.29986 8.58577 2.43267C9.70218 1.29986 11.0436 0.792048 12.3326 0.86236C13.8592 0.940485 15.2342 1.81549 15.9272 3.21392C16.6272 4.62799 16.5881 6.47173 15.5256 8.42486Z" fill="#536471"/>
</svg>
