<svg width="17" height="17" viewBox="0 0 17 17" fill="none" xmlns="http://www.w3.org/2000/svg">
<path d="M9.79688 5.39062C9.79688 6.03906 9.27344 6.5625 8.625 6.5625C7.97656 6.5625 7.45312 6.03906 7.45312 5.39062C7.45312 4.74219 7.97656 4.21875 8.625 4.21875C9.27344 4.21875 9.79688 4.74219 9.79688 5.39062ZM9.40625 12.0312V8.125H7.84375V12.0312H9.40625ZM8.625 16.1328C13.0469 16.1328 16.6328 12.5469 16.6328 8.125C16.6328 3.70312 13.0469 0.117188 8.625 0.117188C4.20312 0.117188 0.617188 3.70312 0.617188 8.125C0.617188 12.5469 4.20312 16.1328 8.625 16.1328ZM15.0703 8.125C15.0703 11.6875 12.1875 14.5703 8.625 14.5703C5.0625 14.5703 2.17969 11.6875 2.17969 8.125C2.17969 4.5625 5.0625 1.67969 8.625 1.67969C12.1875 1.67969 15.0703 4.5625 15.0703 8.125Z" fill="#536471"/>
</svg>
