<svg width="17" height="17" viewBox="0 0 17 17" fill="none" xmlns="http://www.w3.org/2000/svg">
<path d="M12.1744 0.950195H5.0053C2.5707 0.950195 0.589996 2.931 0.589996 5.36559V12.5347C0.589996 14.9694 2.5707 16.9501 5.0053 16.9501H12.1744C14.6092 16.9501 16.5899 14.9693 16.5899 12.5347V5.36559C16.59 2.931 14.6092 0.950195 12.1744 0.950195ZM15.1704 12.5347C15.1704 14.1866 13.8264 15.5305 12.1745 15.5305H5.0053C3.35346 15.5306 2.00959 14.1866 2.00959 12.5347V5.36559C2.00959 3.71376 3.35346 2.36978 5.0053 2.36978H12.1744C13.8263 2.36978 15.1703 3.71376 15.1703 5.36559V12.5347H15.1704Z" fill="black"/>
<path d="M8.58995 4.82764C6.31662 4.82764 4.46718 6.67708 4.46718 8.95041C4.46718 11.2236 6.31662 13.073 8.58995 13.073C10.8633 13.073 12.7127 11.2236 12.7127 8.95041C12.7127 6.67708 10.8633 4.82764 8.58995 4.82764ZM8.58995 11.6533C7.09948 11.6533 5.88677 10.4408 5.88677 8.95031C5.88677 7.45974 7.09938 6.24713 8.58995 6.24713C10.0805 6.24713 11.2931 7.45974 11.2931 8.95031C11.2931 10.4408 10.0804 11.6533 8.58995 11.6533Z" fill="black"/>
<path d="M12.8856 3.62402C12.6121 3.62402 12.3434 3.73475 12.1503 3.92876C11.9562 4.12183 11.8446 4.3906 11.8446 4.66506C11.8446 4.93866 11.9563 5.20734 12.1503 5.40135C12.3433 5.59441 12.6121 5.70609 12.8856 5.70609C13.1601 5.70609 13.4279 5.59441 13.6219 5.40135C13.8159 5.20734 13.9267 4.93856 13.9267 4.66506C13.9267 4.3906 13.8159 4.12183 13.6219 3.92876C13.4289 3.73475 13.1601 3.62402 12.8856 3.62402Z" fill="black"/>
</svg>
