<svg width="25" height="25" viewBox="0 0 25 25" fill="none" xmlns="http://www.w3.org/2000/svg">
<path d="M13.8245 12.4722L2.21649 24.0802C1.66158 23.5553 1.36163 22.8354 1.36163 22.0555V3.8486C1.36163 3.05373 1.67658 2.33385 2.24648 1.79395L13.8245 12.4722Z" fill="#2196F3"/>
<path d="M23.8578 12.9524C23.8578 14.0022 23.2879 14.932 22.3431 15.457L19.0436 17.2866L14.9493 13.5073L13.8245 12.4725L18.1588 8.13818L22.3431 10.4478C23.2879 10.9727 23.8578 11.9026 23.8578 12.9524Z" fill="#FFC107"/>
<path d="M13.8245 12.4723L2.24646 1.79411C2.39643 1.64413 2.5914 1.50916 2.78637 1.38918C3.73121 0.819271 4.87102 0.804274 5.84586 1.34418L18.1588 8.13804L13.8245 12.4723Z" fill="#4CAF50"/>
<path d="M19.0437 17.2864L5.84588 24.5601C5.38096 24.8301 4.85605 24.9501 4.34613 24.9501C3.80622 24.9501 3.26632 24.8151 2.7864 24.5151C2.57812 24.3959 2.3865 24.2496 2.21649 24.0802L13.8245 12.4722L14.9494 13.507L19.0437 17.2864Z" fill="#F44336"/>
</svg>
