<svg width="17" height="17" viewBox="0 0 17 17" fill="none" xmlns="http://www.w3.org/2000/svg">
<path d="M16.6329 8.49526C16.6176 7.94469 16.4497 7.40861 16.1471 6.94753C15.8454 6.4873 15.421 6.11912 14.9216 5.8856C15.1116 5.36827 15.1517 4.80833 15.0409 4.26884C14.9293 3.7285 14.6685 3.23077 14.2892 2.83105C13.8886 2.45179 13.3918 2.19185 12.8514 2.07935C12.3119 1.96855 11.752 2.00861 11.2346 2.19867C11.002 1.69838 10.6346 1.2731 10.1736 0.971396C9.71249 0.669691 9.17641 0.500941 8.62499 0.487305C8.07442 0.501793 7.54005 0.668839 7.07982 0.971396C6.61959 1.27395 6.25397 1.69924 6.023 2.19867C5.50482 2.00861 4.94317 1.96685 4.40198 2.07935C3.86079 2.19015 3.36221 2.45094 2.96164 2.83105C2.58238 3.23162 2.32328 3.7302 2.21334 4.26969C2.10255 4.80918 2.14516 5.36912 2.33607 5.8856C1.83579 6.11912 1.40965 6.48645 1.10624 6.94668C0.80283 7.40691 0.633228 7.94384 0.617035 8.49526C0.63408 9.04668 0.80283 9.58276 1.10624 10.0438C1.40965 10.5041 1.83579 10.8722 2.33607 11.1049C2.14516 11.6214 2.10255 12.1813 2.21334 12.7208C2.32414 13.2612 2.58238 13.7589 2.96078 14.1595C3.36135 14.537 3.85908 14.7961 4.39857 14.9078C4.93806 15.0203 5.498 14.9794 6.01533 14.7919C6.24885 15.2913 6.61618 15.7157 7.07726 16.0183C7.53749 16.32 8.07442 16.4879 8.62499 16.5032C9.17641 16.4896 9.71249 16.3217 10.1736 16.02C10.6346 15.7183 11.002 15.2921 11.2346 14.7927C11.7494 14.9964 12.3136 15.045 12.8565 14.9325C13.3986 14.82 13.8963 14.5515 14.2883 14.1595C14.6804 13.7674 14.9497 13.2697 15.0622 12.7268C15.1747 12.1839 15.1261 11.6197 14.9216 11.1049C15.421 10.8714 15.8454 10.5041 16.148 10.043C16.4497 9.58276 16.6176 9.04583 16.6329 8.49526ZM7.48465 11.7765L4.56221 8.85492L5.66419 7.74526L7.4301 9.51117L11.1801 5.42537L12.3281 6.4873L7.48465 11.7765Z" fill="#1D9BF0"/>
</svg>
