<svg width="17" height="17" viewBox="0 0 17 17" fill="none" xmlns="http://www.w3.org/2000/svg">
<path d="M15.5669 4.65938C15.5177 4.24912 15.3331 3.867 15.0421 3.57361C14.7512 3.28021 14.3706 3.09231 13.9608 3.0397C10.0544 2.54146 6.34562 2.54146 2.43922 3.0397C2.0294 3.09233 1.64887 3.28024 1.35794 3.57364C1.06701 3.86703 0.882316 4.24913 0.833136 4.65938C0.522256 7.25522 0.522256 9.73954 0.833136 12.3403C0.932656 13.1848 1.59634 13.852 2.43922 13.96C6.34562 14.4583 10.0544 14.4583 13.9608 13.96C14.8035 13.8519 15.4674 13.1848 15.5669 12.3403C15.8778 9.73954 15.8778 7.25522 15.5669 4.65938ZM10.8432 9.23634L7.52802 11.1498C6.96226 11.4775 6.25282 11.0687 6.25282 10.4133V6.58626C6.25282 5.93106 6.96226 5.52226 7.52802 5.84994L10.8432 7.76354C11.4107 8.09106 11.4107 8.90866 10.8432 9.23634Z" fill="black"/>
</svg>
